<svg width="32" height="33" viewBox="0 0 32 33" fill="none" xmlns="http://www.w3.org/2000/svg">
<g id="CheckFat">
<path id="Vector" d="M30.4172 11.8639L14.3659 27.9139C14.1802 28.0996 13.9597 28.247 13.717 28.3475C13.4744 28.4481 13.2143 28.4998 12.9516 28.4998C12.6889 28.4998 12.4288 28.4481 12.1861 28.3475C11.9434 28.247 11.7229 28.0996 11.5372 27.9139L2.5847 18.9139C2.21029 18.5389 2 18.0306 2 17.5007C2 16.9708 2.21029 16.4626 2.5847 16.0876L5.5847 13.0876C5.95848 12.7137 6.4651 12.5031 6.99378 12.5017C7.52245 12.5002 8.03018 12.7082 8.40595 13.0801L12.9859 17.4889L12.9997 17.5026L24.5909 6.08136C24.9658 5.7081 25.4732 5.49854 26.0022 5.49854C26.5312 5.49854 27.0386 5.7081 27.4134 6.08136L30.4134 9.02636C30.6008 9.212 30.7495 9.43285 30.8512 9.6762C30.9528 9.91956 31.0053 10.1806 31.0057 10.4443C31.006 10.7081 30.9542 10.9692 30.8532 11.2129C30.7522 11.4565 30.604 11.6777 30.4172 11.8639Z" fill="#98D759"/>
</g>
</svg>
