<svg width="42" height="43" viewBox="0 0 42 43" fill="none" xmlns="http://www.w3.org/2000/svg">
<g id="Group 6541">
<ellipse id="Ellipse 45" cx="20.5161" cy="20.9824" rx="20.5161" ry="20.9824" transform="matrix(-1 0 0 1 41.0667 0.172852)" fill="#DAFF01"/>
<path id="Arrow 3" d="M8.70062 21.3484C8.33644 20.9842 8.33644 20.3937 8.70062 20.0296L14.6353 14.0948C14.9995 13.7307 15.59 13.7307 15.9542 14.0948C16.3183 14.459 16.3183 15.0495 15.9542 15.4137L10.6789 20.689L15.9542 25.9643C16.3183 26.3284 16.3183 26.9189 15.9542 27.2831C15.59 27.6473 14.9995 27.6473 14.6353 27.2831L8.70062 21.3484ZM31.7412 21.6215L9.36003 21.6215L9.36003 19.7564L31.7412 19.7564L31.7412 21.6215Z" fill="#242424"/>
</g>
</svg>
