<svg width="134" height="41" viewBox="0 0 134 41" fill="none" xmlns="http://www.w3.org/2000/svg">
<g id="Capa_1" clip-path="url(#clip0_10091_13)">
<path id="Vector" d="M83.3205 34.9286C81.8522 34.6808 81.1343 32.6529 81.1343 31.3473C81.1343 27.107 81.149 22.5404 81.1343 10.261C81.1343 10.0555 80.9724 9.88928 80.7724 9.88928H76.2851C76.085 9.88928 75.9232 10.0555 75.9232 10.261V19.5756C71.6801 16.7921 65.9629 17.2998 62.2583 21.1018C57.98 25.4962 57.98 32.6468 62.2583 37.0412C64.3975 39.2384 67.2076 40.3354 70.0176 40.3354C72.8277 40.3354 75.7937 39.1598 77.8828 36.8931C79.0422 39.0177 80.8018 40.1662 83.2411 40.272C83.4471 40.281 83.6207 40.1148 83.6207 39.9002V35.2762C83.6207 35.0979 83.4883 34.9528 83.3176 34.9226L83.3205 34.9286ZM70.0353 35.2037C66.7456 35.2037 64.0679 32.4534 64.0679 29.0745C64.0679 25.6957 66.7456 22.9454 70.0353 22.9454C73.325 22.9454 76.0026 25.6957 76.0026 29.0745C76.0026 32.4534 73.325 35.2037 70.0353 35.2037Z" fill="white"/>
<path id="Vector_2" d="M103.085 17.7984C97.0326 17.7984 92.1069 22.8576 92.1069 29.0744C92.1069 35.2912 97.0326 40.3504 103.085 40.3504C109.138 40.3504 114.064 35.2912 114.064 29.0744C114.064 22.8576 109.138 17.7984 103.085 17.7984ZM103.085 35.2035C99.7956 35.2035 97.118 32.4533 97.118 29.0744C97.118 25.6955 99.7956 22.9453 103.085 22.9453C106.375 22.9453 109.053 25.6955 109.053 29.0744C109.053 32.4533 106.375 35.2035 103.085 35.2035Z" fill="white"/>
<path id="Vector_3" d="M57.0709 17.7773H52.5219C52.3218 17.7773 52.1599 17.9436 52.1599 18.1491V30.8879C52.1599 34.841 49.035 35.0404 48.4083 35.0404C46.937 35.0404 44.4477 34.167 44.4477 30.8879V18.1491C44.4477 17.9436 44.2859 17.7773 44.0858 17.7773H39.5367C39.3366 17.7773 39.1748 17.9436 39.1748 18.1491V31.4893C39.1748 37.703 43.9328 40.4563 48.4083 40.4563C52.8838 40.4563 57.4328 37.7695 57.4328 31.4893V18.1491C57.4328 17.9436 57.271 17.7773 57.0709 17.7773Z" fill="white"/>
<path id="Vector_4" d="M111.721 39.06H112.378V40.2448H112.828V39.06H113.484V38.6883H111.721V39.06Z" fill="white"/>
<path id="Vector_5" d="M114.937 39.3653C114.926 39.3986 114.911 39.4378 114.896 39.4802C114.881 39.5225 114.867 39.5648 114.852 39.6071C114.837 39.6494 114.826 39.6857 114.817 39.7189H114.802C114.79 39.6857 114.779 39.6434 114.764 39.601C114.749 39.5557 114.737 39.5134 114.723 39.4711C114.708 39.4288 114.696 39.3955 114.684 39.3683L114.425 38.6913H113.725V40.2478H114.149V39.4439C114.149 39.4046 114.149 39.3623 114.149 39.323C114.149 39.2837 114.149 39.2444 114.149 39.2112C114.149 39.1749 114.149 39.1477 114.146 39.1265H114.164C114.172 39.1477 114.181 39.1749 114.19 39.2112C114.202 39.2474 114.214 39.2837 114.228 39.326C114.243 39.3683 114.258 39.4076 114.272 39.4469L114.59 40.2508H114.999L115.317 39.4469C115.329 39.4197 115.341 39.3834 115.352 39.3472C115.364 39.3079 115.379 39.2686 115.391 39.2293C115.402 39.19 115.414 39.1568 115.423 39.1265H115.441C115.441 39.1537 115.441 39.187 115.441 39.2233C115.441 39.2625 115.441 39.2988 115.438 39.3381C115.438 39.3774 115.438 39.4137 115.438 39.4439V40.2478H115.885V38.6913H115.205L114.946 39.3683L114.937 39.3653Z" fill="white"/>
<g id="Group">
<path id="Vector_6" d="M90.1354 17.7743H85.6011C85.401 17.7743 85.2391 17.9405 85.2391 18.146V39.9274C85.2391 40.1329 85.401 40.2961 85.5981 40.2991L90.1325 40.3082C90.3326 40.3082 90.4944 40.1419 90.4944 39.9364V18.143C90.4944 17.9375 90.3326 17.7712 90.1325 17.7712L90.1354 17.7743Z" fill="white"/>
<path id="Vector_7" d="M87.8667 9.89813C86.163 9.89813 84.78 11.3186 84.78 13.0685C84.78 14.8184 86.163 16.2388 87.8667 16.2388C89.5704 16.2388 90.9533 14.8184 90.9533 13.0685C90.9533 11.3186 89.5704 9.89813 87.8667 9.89813Z" fill="white"/>
</g>
<path id="Vector_8" d="M17.7977 26.2637C15.7585 25.487 13.3045 25.3872 10.9329 25.2905C8.43768 25.1878 5.41576 24.6528 5.0303 23.4258C4.88318 22.9634 4.7743 21.8391 6.44857 21.2105C10.2444 19.787 16.0852 20.7662 18.6098 22.6219C18.8511 22.7972 19.1836 22.6279 19.1836 22.3227V17.9465C19.1836 17.8377 19.1394 17.7349 19.06 17.6654C16.6413 15.58 9.85007 14.6794 4.92437 16.804C1.3934 18.3273 -0.0631189 21.2316 0.634247 24.683C1.58172 29.3766 8.81726 29.9267 10.7769 30.0083C16.0734 30.2259 18.0654 30.6067 18.0654 32.5137C18.0654 35.684 10.7975 35.3395 8.14343 34.859C5.57466 34.3935 2.488 32.8069 0.966746 31.8307C0.725463 31.6765 0.416504 31.8549 0.416504 32.145V37.0229C0.416504 37.1438 0.472411 37.2586 0.569512 37.3281C2.53803 38.7184 5.37163 39.6915 7.46372 40.0724C8.66719 40.29 9.90009 40.3988 11.1124 40.3988C13.231 40.3988 15.2819 40.0693 16.962 39.4316C20.4959 38.0898 22.438 35.6296 22.2938 32.284C22.1996 30.114 21.3434 27.6086 17.8006 26.2637H17.7977Z" fill="white"/>
<path id="Vector_9" d="M37.2004 17.7774H29.6559C29.3028 17.7774 29.1557 17.3029 29.4529 17.1004C31.9275 15.417 33.0898 12.3524 33.2222 10.2822C33.2369 10.0706 33.0692 9.89233 32.8603 9.89233H27.2578C27.0607 9.89233 26.8988 10.0555 26.8988 10.261C26.8635 13.8545 26.4604 17.6172 21.1434 17.7744C20.9492 17.7804 20.7961 17.9436 20.7961 18.1431V22.7278C20.7961 22.9333 20.958 23.0996 21.1581 23.0996H24.7861C24.9862 23.0996 25.1481 23.2658 25.1481 23.4713V31.4984C25.1481 38.3106 28.8232 40.3113 33.2222 40.3113C34.2785 40.3113 35.6203 40.1934 36.2294 40.133C36.4148 40.1148 36.556 39.9547 36.556 39.7643V35.3911C36.556 35.1795 36.3824 35.0103 36.1764 35.0224C35.3702 35.0647 33.4988 35.1432 32.7808 35.0012C30.3445 34.5176 30.3562 32.7889 30.3562 30.8214V23.4713C30.3562 23.2658 30.5181 23.0996 30.7182 23.0996H37.2034C37.4035 23.0996 37.5653 22.9333 37.5653 22.7278V18.1491C37.5653 17.9436 37.4035 17.7774 37.2034 17.7774H37.2004Z" fill="white"/>
<path id="Vector_10" d="M133.16 15.9791C127.328 12.9931 128.653 9.19719 132.978 3.603C133.102 3.44282 132.919 3.22824 132.748 3.32798C126.525 7.0121 121.891 5.75484 119.678 0.819507C119.601 0.647239 119.351 0.695595 119.337 0.885996C118.96 6.32605 115.314 8.38722 111.315 6.76428C111.145 6.69476 110.995 6.90028 111.107 7.04837C113.787 10.5481 114.414 14.4952 107.72 16.0456C107.537 16.0879 107.531 16.3569 107.711 16.4053C114.252 18.134 116.918 24.0636 116.138 30.4708C116.115 30.6642 116.359 30.7609 116.465 30.6008C120.034 25.1516 125.978 23.5378 129.762 26.4542C129.912 26.5691 130.112 26.3968 130.03 26.2246C127.681 21.3225 127.411 17.7713 133.119 16.3267C133.281 16.2844 133.308 16.0577 133.157 15.9821L133.16 15.9791ZM124.689 14.465C124.689 14.5677 124.61 14.6493 124.51 14.6493H121.638C121.538 14.6493 121.458 14.7309 121.458 14.8337V18.1098C121.458 18.9923 121.423 19.9292 122.544 19.9836C122.868 19.9987 123.689 19.9896 124.053 19.9836C124.153 19.9836 124.236 20.0652 124.236 20.168V22.0992C124.236 22.1959 124.165 22.2745 124.074 22.2835C123.794 22.3107 123.206 22.3621 122.741 22.3621C120.77 22.3621 119.122 21.4645 119.122 18.409V14.8276C119.122 14.7249 119.042 14.6433 118.942 14.6433H117.353C117.253 14.6433 117.174 14.5617 117.174 14.4589V12.4401C117.174 12.3403 117.253 12.2587 117.35 12.2557C119.704 12.1771 119.893 10.5058 119.91 8.90705C119.91 8.80429 119.993 8.72269 120.09 8.72269H122.565C122.67 8.72269 122.753 8.81336 122.744 8.92216C122.679 9.83488 122.173 11.1647 121.108 11.9202C120.961 12.026 121.029 12.2587 121.208 12.2587H124.512C124.613 12.2587 124.692 12.3403 124.692 12.4431V14.4589L124.689 14.465Z" fill="white"/>
</g>
<defs>
<clipPath id="clip0_10091_13">
<rect width="132.844" height="39.7396" fill="white" transform="translate(0.416626 0.713562)"/>
</clipPath>
</defs>
</svg>
